<?xml version="1.0" encoding="UTF-8"?>
<svg id="Layer_2" data-name="Layer 2" xmlns="http://www.w3.org/2000/svg" xmlns:xlink="http://www.w3.org/1999/xlink" viewBox="0 0 356.09 301.33">
  <defs>
    <style>
      .cls-1 {
        fill: url(#linear-gradient-2);
      }

      .cls-2 {
        fill: url(#linear-gradient);
      }
    </style>
    <linearGradient id="linear-gradient" x1="-241.7" y1="-479.38" x2="-51.49" y2="-301.97" gradientTransform="translate(459.63 32.85) rotate(-90)" gradientUnits="userSpaceOnUse">
      <stop offset="0" stop-color="#ec1b69"/>
      <stop offset="1" stop-color="#f05b57"/>
    </linearGradient>
    <linearGradient id="linear-gradient-2" x1="-151.75" y1="-269.27" x2="-14.01" y2="-140.81" xlink:href="#linear-gradient"/>
  </defs>
  <g id="Object">
    <g id="Logogram">
      <path class="cls-2" d="M191.12,25.75l-59.35,238.51c-4.62,21.63-23.72,37.08-45.84,37.08H21.31c-13.55,0-23.66-12.49-20.83-25.75L59.82,37.08C64.44,15.46,83.55,0,105.66,0h64.64c13.55,0,23.66,12.49,20.83,25.75Z"/>
      <path class="cls-1" d="M355.84,13.56l-24.5,114.7c-7.66,35.87-39.35,61.51-76.03,61.51h-52.11c-7.14,0-12.46-6.58-10.97-13.56l24.5-114.7C224.38,25.64,256.07,0,292.75,0h52.11c7.14,0,12.46,6.58,10.97,13.56Z"/>
    </g>
  </g>
</svg>